<svg id="Layer_1" data-name="Layer 1" xmlns="http://www.w3.org/2000/svg" xmlns:xlink="http://www.w3.org/1999/xlink" viewBox="0 0 681.2 632.8"><defs><style>.cls-1{opacity:0.18;}.cls-2{fill:#afe3ef;}.cls-12,.cls-13,.cls-17,.cls-3,.cls-4,.cls-5,.cls-6,.cls-7,.cls-8,.cls-9{fill:none;}.cls-3,.cls-7{stroke:#0e3c54;}.cls-11,.cls-12,.cls-13,.cls-17,.cls-3,.cls-4,.cls-6,.cls-8,.cls-9{stroke-miterlimit:10;}.cls-3,.cls-4,.cls-5,.cls-6,.cls-7,.cls-8{stroke-width:2.12px;}.cls-12,.cls-4,.cls-5,.cls-6,.cls-8,.cls-9{stroke:#194867;}.cls-12,.cls-13,.cls-4,.cls-5,.cls-6,.cls-7{stroke-linecap:round;}.cls-4{stroke-dasharray:5.31;}.cls-5,.cls-7{stroke-linejoin:round;}.cls-9{stroke-width:1.33px;}.cls-10{fill:#6ca7b5;}.cls-11,.cls-18{fill:#fff;}.cls-11{stroke:#253551;stroke-width:4px;}.cls-12,.cls-13{stroke-width:2.94px;}.cls-13{stroke:#000;}.cls-14{fill:#79a5fc;}.cls-15{fill:#f4ecd7;}.cls-16{fill:#e8d472;}.cls-17{stroke:#fff;stroke-width:1.06px;}.cls-19{fill:#e4eff4;}.cls-20{fill:#323657;}.cls-21{fill:#fae6de;}.cls-22{fill:url(#linear-gradient);}.cls-23{fill:#495da1;}.cls-24{fill:#deccc5;}.cls-25{fill:#292929;}.cls-26{fill:#434975;}.cls-27{fill:#dd1bc6;}.cls-28{fill:#1d3b54;}.cls-29{fill:#eea886;}.cls-30{fill:#a77860;}.cls-31{fill:#e26e40;}.cls-32{fill:#f75a14;}</style><linearGradient id="linear-gradient" x1="569.85" y1="493.76" x2="569.85" y2="547.07" gradientTransform="translate(1139.7 1025.43) rotate(-180)" gradientUnits="userSpaceOnUse"><stop offset="0" stop-color="#609ff0"/><stop offset="1" stop-color="#5a3f9e"/></linearGradient></defs><title>whitepaper-top-banner</title><g class="cls-1"><path class="cls-2" d="M386,624.1c-49.7-.5-350.6,61.8-371.5-191.6S104,158,169.5,143.9C319.8,111.6,449.1-42.9,598.2,40.2c58.5,32.6,12.4,173.8,62.5,318.1,36.7,105.7-30.9,218-76.1,244.7S386,624.1,386,624.1Z"/></g><path class="cls-3" d="M518.9,404.3a3.9,3.9,0,1,0,3.9-3.9A3.9,3.9,0,0,0,518.9,404.3Z"/><line class="cls-4" x1="134.5" y1="507.9" x2="105.3" y2="507.9"/><line class="cls-5" x1="125.3" y1="496.6" x2="96.1" y2="496.6"/><line class="cls-6" x1="106.4" y1="465.4" x2="106.4" y2="468.3"/><line class="cls-6" x1="112.7" y1="471.3" x2="109.7" y2="471.3"/><line class="cls-6" x1="106.4" y1="477.4" x2="106.4" y2="474.5"/><line class="cls-6" x1="100.1" y1="471.5" x2="103.1" y2="471.5"/><line class="cls-6" x1="89.8" y1="544.9" x2="89.8" y2="547.8"/><line class="cls-6" x1="96.1" y1="550.8" x2="93.1" y2="550.8"/><line class="cls-6" x1="89.8" y1="557" x2="89.8" y2="554"/><line class="cls-6" x1="83.5" y1="551" x2="86.4" y2="551"/><line class="cls-5" x1="555.9" y1="486.1" x2="585.1" y2="486.1"/><line class="cls-5" x1="540.8" y1="486.2" x2="546.6" y2="486.2"/><line class="cls-4" x1="540.8" y1="477.2" x2="570.1" y2="477.2"/><line class="cls-6" x1="590.5" y1="456.8" x2="590.5" y2="459.8"/><line class="cls-6" x1="584.2" y1="462.8" x2="587.2" y2="462.8"/><line class="cls-6" x1="590.5" y1="468.9" x2="590.5" y2="465.9"/><line class="cls-6" x1="596.8" y1="463" x2="592.6" y2="463"/><line class="cls-7" x1="258.2" y1="18.9" x2="287.4" y2="18.9"/><line class="cls-7" x1="243.2" y1="18.9" x2="248.9" y2="18.9"/><path class="cls-3" d="M186.5,24.5a3.9,3.9,0,0,1-7.8,0,3.84,3.84,0,0,1,3.9-3.9A4,4,0,0,1,186.5,24.5Z"/><line class="cls-4" x1="549.2" y1="80.3" x2="578.4" y2="80.3"/><line class="cls-5" x1="558.3" y1="69" x2="587.6" y2="69"/><path class="cls-8" d="M509.7,34.5a3.9,3.9,0,1,1-3.9-3.9A3.84,3.84,0,0,1,509.7,34.5Z"/><line class="cls-6" x1="577.3" y1="37.8" x2="577.3" y2="40.7"/><line class="cls-6" x1="571" y1="43.7" x2="573.9" y2="43.7"/><line class="cls-6" x1="577.3" y1="49.8" x2="577.3" y2="46.9"/><line class="cls-6" x1="583.6" y1="43.9" x2="580.6" y2="43.9"/><line class="cls-6" x1="593.9" y1="117.3" x2="593.9" y2="120.2"/><line class="cls-6" x1="587.6" y1="123.2" x2="590.6" y2="123.2"/><line class="cls-6" x1="593.9" y1="129.3" x2="593.9" y2="126.4"/><line class="cls-6" x1="600.2" y1="123.4" x2="597.3" y2="123.4"/><line class="cls-5" x1="429.5" y1="88.5" x2="400.3" y2="88.5"/><line class="cls-5" x1="444.5" y1="88.5" x2="438.8" y2="88.5"/><line class="cls-5" x1="149.6" y1="106.4" x2="120.4" y2="106.4"/><line class="cls-5" x1="164.6" y1="106.4" x2="158.9" y2="106.4"/><line class="cls-4" x1="164.6" y1="97.5" x2="135.4" y2="97.5"/><path class="cls-8" d="M172,176.2a3.9,3.9,0,1,0,3.9-3.9A3.9,3.9,0,0,0,172,176.2Z"/><line class="cls-6" x1="115" y1="77.1" x2="115" y2="80.1"/><line class="cls-6" x1="121.3" y1="83" x2="118.3" y2="83"/><line class="cls-6" x1="115" y1="89.2" x2="115" y2="86.2"/><line class="cls-6" x1="108.6" y1="83.2" x2="111.6" y2="83.2"/><line class="cls-6" x1="97.9" y1="134.5" x2="97.9" y2="137.4"/><line class="cls-6" x1="104.2" y1="140.4" x2="101.3" y2="140.4"/><line class="cls-6" x1="97.9" y1="146.6" x2="97.9" y2="143.6"/><line class="cls-6" x1="91.6" y1="140.6" x2="94.6" y2="140.6"/><path class="cls-9" d="M393.4,477.4A61.29,61.29,0,0,1,415,468c-1.4,2.9-3.3,5.8-6.3,7a13.48,13.48,0,0,1-6.9.5,97,97,0,0,1-21.4-4.5c2.3-1,4.7-1.9,7-2.9,2,3.1,4,6.1,6,9.3a33.35,33.35,0,0,0,5.1-13.2,76.58,76.58,0,0,0,4.7,24.5c.4-10.3.8-20.7,1.1-31"/><path class="cls-10" d="M547,504.7H329.16A12.18,12.18,0,0,1,317,492.55V139.9a12.18,12.18,0,0,1,12.16-12.16H547A12.18,12.18,0,0,1,559.1,139.9V492.55A12.06,12.06,0,0,1,547,504.7Z"/><path class="cls-11" d="M547.48,491.54H328.69a9.94,9.94,0,0,1-9.92-9.92V141.36a10,10,0,0,1,9.92-9.93H547.48a10,10,0,0,1,9.93,9.93V481.62A10,10,0,0,1,547.48,491.54Z"/><line class="cls-12" x1="343.08" y1="236.14" x2="502.48" y2="236.14"/><line class="cls-12" x1="343.08" y1="253.6" x2="502.48" y2="253.6"/><line class="cls-12" x1="343.08" y1="271.14" x2="502.48" y2="271.14"/><line class="cls-13" x1="343.08" y1="288.68" x2="502.48" y2="288.68"/><line class="cls-13" x1="343.08" y1="306.22" x2="502.48" y2="306.22"/><line class="cls-12" x1="343.08" y1="348.22" x2="431.47" y2="348.22"/><line class="cls-12" x1="343.08" y1="365.69" x2="431.47" y2="365.69"/><line class="cls-12" x1="343.08" y1="383.23" x2="431.47" y2="383.23"/><line class="cls-13" x1="343.08" y1="400.77" x2="431.47" y2="400.77"/><line class="cls-13" x1="343.08" y1="418.23" x2="431.47" y2="418.23"/><rect class="cls-14" x="345.16" y="183.36" width="169.09" height="30.23"/><rect class="cls-15" x="455.94" y="338.61" width="78.7" height="82.62"/><path class="cls-10" d="M310,505.7H92.16A12.18,12.18,0,0,1,80,493.55V140.9a12.18,12.18,0,0,1,12.16-12.16H310A12.18,12.18,0,0,1,322.1,140.9V493.55A12.06,12.06,0,0,1,310,505.7Z"/><path class="cls-11" d="M310.48,492.54H91.69a9.94,9.94,0,0,1-9.92-9.92V142.36a10,10,0,0,1,9.92-9.93H310.48a10,10,0,0,1,9.93,9.93V482.62A10,10,0,0,1,310.48,492.54Z"/><line class="cls-12" x1="106.08" y1="237.14" x2="265.48" y2="237.14"/><line class="cls-12" x1="106.08" y1="254.6" x2="265.48" y2="254.6"/><line class="cls-12" x1="106.08" y1="272.14" x2="265.48" y2="272.14"/><line class="cls-13" x1="106.08" y1="289.68" x2="265.48" y2="289.68"/><line class="cls-13" x1="106.08" y1="307.22" x2="265.48" y2="307.22"/><line class="cls-12" x1="106.08" y1="349.22" x2="240" y2="349.22"/><line class="cls-12" x1="106.08" y1="366.69" x2="240" y2="366.69"/><line class="cls-12" x1="106.08" y1="384.23" x2="240" y2="384.23"/><line class="cls-13" x1="106.08" y1="401.77" x2="240" y2="401.77"/><line class="cls-13" x1="106.08" y1="419.23" x2="240" y2="419.23"/><rect class="cls-16" x="108.16" y="184.36" width="169.09" height="30.23"/><path class="cls-14" d="M466.5,79.7H432.2a7,7,0,0,1-7-7V38.9a5.55,5.55,0,0,1,5.5-5.5h35.8a5.55,5.55,0,0,1,5.5,5.5V74.2A5.48,5.48,0,0,1,466.5,79.7Z"/><line class="cls-17" x1="435" y1="56.6" x2="463.2" y2="56.6"/><line class="cls-17" x1="435" y1="50.1" x2="463.2" y2="50.1"/><line class="cls-17" x1="435" y1="62.3" x2="446.8" y2="62.3"/><path class="cls-18" d="M467.9,61.3a2.12,2.12,0,0,0-2.6-1.1h0l-1.3.5-12.5,4.9h-.1l-2.1,2.6a.19.19,0,0,0,0,.3c0,.1.1.1.2.1h.1l3.5.4h.1l12.5-4.9,1.3-.5a1.63,1.63,0,0,0,.9-2.3Zm-17.8,7,1.6-1.9,1,2.2Zm3.1.3L452,66l12-4.7,1.2,2.6Zm13.5-5.3-1,.4-1.2-2.6,1-.4a1.52,1.52,0,0,1,1.9.8,1.36,1.36,0,0,1-.7,1.8Z"/><path class="cls-18" d="M462.9,63l-7.8,3.1a.19.19,0,0,0-.1.3.1.1,0,0,0,.1.1h.2l7.8-3.1a.19.19,0,0,0,0-.3C463.1,63,463,63,462.9,63Z"/><path class="cls-19" d="M115,573.6c0,3.7,27.9,6.7,62.3,6.7s62.3-3,62.3-6.7-27.9-6.7-62.3-6.7S115,569.9,115,573.6Z"/><path class="cls-20" d="M380.52,539.56H607.36a0,0,0,0,1,0,0V584.7a0,0,0,0,1,0,0H380.52a8.74,8.74,0,0,1-8.74-8.74V548.3A8.74,8.74,0,0,1,380.52,539.56Z" transform="translate(979.13 1124.26) rotate(180)"/><path class="cls-20" d="M347.61,544.49v35.28h-6v4.93H448.05a6,6,0,0,0,6-6V545.6a6,6,0,0,0-6-6H341.62v4.93Z"/><path class="cls-21" d="M353.42,544.49h95.28a0,0,0,0,1,0,0v35.27a0,0,0,0,1,0,0H353.42a5.81,5.81,0,0,1-5.81-5.81V550.3A5.81,5.81,0,0,1,353.42,544.49Z" transform="translate(796.3 1124.26) rotate(180)"/><path class="cls-22" d="M486.24,485.87H669a0,0,0,0,1,0,0v53.68a0,0,0,0,1,0,0H486.24A15.54,15.54,0,0,1,470.7,524v-22.6A15.54,15.54,0,0,1,486.24,485.87Z" transform="translate(1139.7 1025.43) rotate(180)"/><path class="cls-23" d="M439,491.4V534h-3.24v5.53h131.9A15.54,15.54,0,0,0,583.16,524v-22.6a15.55,15.55,0,0,0-15.54-15.55H435.72v5.53Z"/><path class="cls-21" d="M454.5,491.4H576.68a0,0,0,0,1,0,0V534a0,0,0,0,1,0,0H454.5A15.54,15.54,0,0,1,439,518.49V506.94A15.54,15.54,0,0,1,454.5,491.4Z" transform="translate(1015.64 1025.43) rotate(180)"/><rect class="cls-24" x="460.51" y="504.99" width="52.34" height="1.35" transform="translate(973.36 1011.33) rotate(180)"/><rect class="cls-24" x="481.5" y="509.09" width="55.89" height="1.35" transform="translate(1018.88 1019.53) rotate(180)"/><rect class="cls-24" x="360.2" y="553.62" width="52.34" height="1.35" transform="translate(772.73 1108.58) rotate(180)"/><rect class="cls-24" x="381.18" y="557.71" width="55.89" height="1.35" transform="translate(818.25 1116.77) rotate(180)"/><rect class="cls-24" x="419.54" y="561.45" width="23.12" height="1.35" transform="translate(862.19 1124.26) rotate(180)"/><path class="cls-25" d="M537.39,569s-.28,3.6-1.11,5-3.55,9.67-4.72,11.77-5.82,3.6-5.6,7.31,8.8,4.29,11.19,2.51,10.12-12.88,11-14.5,1.22-7.09-.38-8.65-3.37-4.79-3.33-5.54S538.33,567.48,537.39,569Z"/><path class="cls-26" d="M547.36,458.73s-15.46,20.36-18.13,26.38S522,499.73,522,502.52s2.37,14.2,3.55,16.35,9.33,38.85,9.77,41.21,2.09,8.91,2.09,8.91l7.05-2.1s.73-32.5-.53-38.95-5.06-15.81-4.47-18.75S549.5,498.08,556,493.71s14.21-11.26,14.65-18.35-3.14-15.13-3.14-15.13S560.16,455,547.36,458.73Z"/><path class="cls-26" d="M530,456.9s-4.44,6.56-6.66,8.17-17.64,16.34-22.08,23.55-6,8.28-5,11.4,2.25,11.5,3.25,13.65,13.91,53.48,13.91,53.48,5.32,1.35,6.87-1c0,0-3-22.25-2.25-30.31s-.8-19.8-4.19-25.72-1-9.87,2.86-12.56S542,482.7,542,482.7,568.07,446.69,530,456.9Z"/><path class="cls-25" d="M513.59,566.89s-.12,1.29-.5,1.45-6.5,9.19-7.66,10.48-8.49,3.39-8.6,4.25,1,5.7,7,5.81,11-5.06,13.43-7,9.51-4.06,6.71-8.82a62.68,62.68,0,0,1-3.69-6.94Z"/><path class="cls-26" d="M546.83,571.36a31.26,31.26,0,0,0-3.11,7.2c-1.23,4.19-6,9.62-9.27,9.46s-2.73-2.56-2.73-2.56,3.48-9.54,4.93-12.6a30.82,30.82,0,0,0,.74-3.87c.09-.53,4.88-2.48,7.05-2.1C544.44,566.89,546.34,570.7,546.83,571.36Z"/><path class="cls-26" d="M505.16,579.06s1.1,2.92,3.88,2.39,5.88-3.65,7.49-5.42a55.47,55.47,0,0,1,6.24-5l-2.5-4.87-6.66.41Z"/><path class="cls-27" d="M526.79,428.17c3.52,5.95,4.11,26.9,3.22,28.92,0,0,20.22,6.22,37.75,3.73,0,0-.87-1.91-1.74-4.41l-1.13-3.24c-1.25-3.55-2.63-7.38-3.36-9.12-1.56-3.67-1-9.83.22-12S570.18,414,570.18,414s3.89-11.38-2.77-14.93a51.09,51.09,0,0,0-12.86-4.76l-11.72-.81s-2.56.47-6,.77-7,.89-7.72,6.58S527.69,409.49,527,411,522.8,421.42,526.79,428.17Z"/><path class="cls-27" d="M563.1,397s6.88.94,9.91,6.24,2.83,12.42,3.5,15.26,4.73,29.39,4,31.68-3.62,6.17-8,5.69-22-9.64-22-9.64,2.37-6.87,2.37-8.29l16.94,5.92s-4.07-27.73-4.59-30.81S561.41,399.71,563.1,397Z"/><path class="cls-27" d="M533.67,394.73a14.39,14.39,0,0,0-8.21,5.41c-2.05,3-2.22,9.74-2.52,11s-4.21,15.57-4.21,15.57l10.95,7.34Z"/><polygon class="cls-28" points="528.64 422.37 567.04 410.99 568.59 412.25 571.77 442.43 528.64 458.63 528.64 422.37"/><path class="cls-29" d="M541.6,390.06s.14,1.43.3,3.33c.06.65.12,1.35.17,2.07a58.64,58.64,0,0,1,.23,6.13s4.61,4.93,9.86-5.77a15.59,15.59,0,0,1-.55-10.42C553.28,379.39,541.6,390.06,541.6,390.06Z"/><path class="cls-29" d="M541.71,352.37s-10,1-10.44,13.79,5,23.36,6.85,24.92,11.66-1,13.29-7.85,4.55-12,3.41-17.59S553.93,350.63,541.71,352.37Z"/><path class="cls-30" d="M542,391.27c.07.8.14,1.66.21,2.54,5.8-3.08,7.12-6.66,7.12-6.66C545.43,391,542,391.27,542,391.27Z"/><path class="cls-27" d="M526.83,411.25s-6.14,10.43-4.77,17.23,6,2.81,6,2.81S521.84,423.59,526.83,411.25Z"/><polygon class="cls-28" points="526.2 458.63 501.27 436.98 494.31 401.51 524.53 422.4 526.2 458.63"/><polygon class="cls-28" points="528.64 458.63 526.2 458.63 524.53 422.4 528.64 422.37 528.64 458.63"/><path class="cls-29" d="M552.72,439.08s-3.23-1.15-3.57-1.38-.81-3.64-2.41-4.94a41.92,41.92,0,0,1-4.09-3.3c-.4-.62-1.3,1.18.11,2.73s1.44,2.77-2.06,2c-1.93-.43-8.27-4.26-8.19-2.8,0,.85,6.25,4.27,6.25,4.27s-6.91-3.18-7.32-2.84c-.81.67,6,4.14,6.31,4.24,0,0-6.1-2.34-6.38-1.79s5.8,3.11,5.7,3.21-4.87-1.81-5-1.36c-.17.6,4,2.56,4.81,2.83s9.7,3.42,11.21,3.59a5,5,0,0,1,2.76,1.75Z"/><path class="cls-27" d="M551.52,437.79a33.46,33.46,0,0,0-2.29,7.82s11,5.76,18.18,8.62l5.55-12-1.19.22-1.86.7S555.67,439,551.52,437.79Z"/><path class="cls-26" d="M512.91,565.19s-.49,4.49-1.21,4.87S519.05,568.54,512.91,565.19Z"/><path class="cls-27" d="M557.08,449.56c.18.14,6,4.75,8.94,6.85l-1.13-3.24Z"/><polygon class="cls-28" points="501.27 436.98 491.86 402.61 494.31 401.51 501.27 436.98"/><path class="cls-29" d="M501,435.88a26.23,26.23,0,0,1-1.61-3.48c-.73-1.95-2.88-9.23-2.44-9.54s6,.93,6.79,2.08-1.3,1-1.3,1,2.95,1.07,2.53,1.87-2.2.11-2.2.11,2.32,1.07,1.77,1.73-1.73.36-1.73.36,2.09.81,1.62,1.56-4.08.68-3.79,1.47A13.87,13.87,0,0,1,501,435.88Z"/><path class="cls-31" d="M531.41,365.63s-1.58-17.12,15-14.06,8.05,21.77,5.81,27.87c0,0,.27-9.47-7.72-9.78S534.87,367.5,531.41,365.63Z"/><path class="cls-31" d="M551.7,355.78s6.39-6.13,10.94.81-5.4,16.65-9.44,10.89A12.81,12.81,0,0,1,551.7,355.78Z"/><polyline class="cls-32" points="309.65 128.25 327.86 128.25 327.86 301.84 319.29 289.84 309.77 301.84"/></svg>